<svg xmlns="http://www.w3.org/2000/svg" fill="none" viewBox="-0.5 -0.5 24 24" id="Cloudinary-Icon--Streamline-Svg-Logos.svg" height="24" width="24"><desc>Cloudinary Icon Streamline Icon: https://streamlinehq.com</desc><path fill="#3448C5" d="M6.842715625 10.745863541666667c0.016483333333333332 0 0.032271875 0.0066125 0.04384375 0.018352083333333335l2.0726114583333333 2.074480208333333c0.017106250000000003 0.017561458333333335 0.0221375 0.043628125000000004 0.012817708333333334 0.06629270833333334 -0.009319791666666665 0.02268854166666667 -0.031193750000000003 0.03768645833333333 -0.05572708333333334 0.038165625h-0.5298145833333333c-0.034308333333333337 0 -0.062411458333333336 0.027264583333333335 -0.06341770833333334 0.06157291666666667V17.668552083333335c0.0007427083333333333 0.29521458333333334 0.118090625 0.5781625 0.32648020833333335 0.7872708333333334l0.30966145833333336 0.30968541666666666c0.017106250000000003 0.017561458333333335 0.0221375 0.043628125000000004 0.012817708333333334 0.06629270833333334 -0.009319791666666665 0.02268854166666667 -0.031193750000000003 0.03768645833333333 -0.05572708333333334 0.038165625H6.472415625c-0.6181729166666667 0 -1.119309375 -0.5011364583333333 -1.119309375 -1.119309375V13.004727083333334c0 -0.033996875 -0.027576041666666665 -0.06157291666666667 -0.06157291666666667 -0.06157291666666667h-0.5223395833333334c-0.024868750000000002 0.0002635416666666667 -0.04743750000000001 -0.014446875 -0.057212500000000006 -0.037303125 -0.009798958333333333 -0.02285625 -0.0048875 -0.049330208333333334 0.012434375000000001 -0.06715520833333334l2.074480208333333 -2.074480208333333c0.011571875 -0.011739583333333335 0.02736041666666667 -0.018352083333333335 0.04381979166666667 -0.018352083333333335Zm4.583636458333333 1.2014145833333334c0.016483333333333332 0 0.032271875 0.0066125 0.04384375 0.018352083333333335l2.074480208333333 2.0670052083333332c0.017321875 0.017825 0.022233333333333334 0.04432291666666667 0.012434375000000001 0.06715520833333334 -0.009798958333333333 0.02285625 -0.032367708333333335 0.037566666666666665 -0.057212500000000006 0.037303125H12.970083333333335c-0.034308333333333337 0.0010302083333333333 -0.06157291666666667 0.029133333333333334 -0.06157291666666667 0.06344166666666666V17.668552083333335c0.0002635416666666667 0.2949510416666667 0.11691666666666667 0.577875 0.3246114583333333 0.7872708333333334l0.3115541666666667 0.30968541666666666c0.017321875 0.01780104166666667 0.022233333333333334 0.04429895833333334 0.012434375000000001 0.06715520833333334 -0.009798958333333333 0.022832291666666667 -0.032367708333333335 0.037566666666666665 -0.057212500000000006 0.037303125H11.061634375c-0.6181729166666667 0 -1.119309375 -0.5011364583333333 -1.119309375 -1.119309375V14.204272916666667c0 -0.03433229166666667 -0.027264583333333335 -0.06243541666666667 -0.06157291666666667 -0.06344166666666666h-0.5279458333333333c-0.024509375 -0.0004791666666666667 -0.04640729166666667 -0.015477083333333336 -0.05572708333333334 -0.038165625 -0.009295833333333335 -0.022664583333333335 -0.004264583333333334 -0.048731250000000004 0.012817708333333334 -0.06629270833333334l2.0726114583333333 -2.0707427083333334c0.011571875 -0.011739583333333335 0.02736041666666667 -0.018352083333333335 0.04384375 -0.018352083333333335Zm4.584546875 1.1885010416666668c0.016171875000000002 0 0.03167291666666667 0.006564583333333334 0.04290937500000001 0.018184375l2.074480208333333 2.0726114583333333c0.018423958333333334 0.01739375 0.024317708333333337 0.04429895833333334 0.014854166666666667 0.06780208333333333 -0.009487500000000001 0.023527083333333334 -0.032415625 0.0388125 -0.05776354166666667 0.038525000000000004h-0.5316833333333333c-0.033996875 0 -0.06154895833333334 0.027576041666666665 -0.06154895833333334 0.06157291666666667v2.2740770833333332c0.0007427083333333333 0.29521458333333334 0.118090625 0.5781625 0.32645625 0.7872708333333334l0.30968541666666666 0.30968541666666666c0.017106250000000003 0.017561458333333335 0.0221375 0.043628125000000004 0.012817708333333334 0.06629270833333334 -0.009319791666666665 0.02268854166666667 -0.031217708333333333 0.03768645833333333 -0.05572708333333334 0.038165625H15.639664583333333c-0.6181729166666667 0 -1.1193333333333333 -0.5011364583333333 -1.1193333333333333 -1.119309375v-2.356182291666667c0 -0.033996875 -0.027552083333333335 -0.06157291666666667 -0.06154895833333334 -0.06157291666666667h-0.5223635416666667c-0.025323958333333334 0.0002875 -0.048252083333333334 -0.014997916666666668 -0.05773958333333333 -0.038525000000000004 -0.009487500000000001 -0.023503125000000003 -0.00359375 -0.05040833333333333 0.014854166666666667 -0.06780208333333333l2.07445625 -2.0726114583333333c0.011260416666666667 -0.011619791666666667 0.0267375 -0.018184375 0.04290937500000001 -0.018184375ZM11.384377083333334 4.130129166666667c3.258525 0.023718750000000004 6.13251875 2.1396947916666664 7.122620833333333 5.244263541666666C20.926957291666668 9.690211458333334 22.742735416666665 11.743320833333334 22.760416666666668 14.183740625c0 2.0141770833333332 -1.2596572916666666 3.6879302083333334 -3.2934802083333334 4.384758333333334l-0.07568437500000001 0.025371875 -0.09326979166666667 0.029852083333333335v-1.503625c1.292815625 -0.544740625 2.052079166666667 -1.6211645833333335 2.052079166666667 -2.936357291666667 -0.0066125 -1.855884375 -1.476384375 -3.371296875 -3.3235239583333334 -3.4419500000000003l-0.062411458333333336 -0.0018208333333333334h-0.5596666666666666l-0.13431041666666668 -0.5335520833333334c-0.6592135416666667 -2.7210677083333334 -3.0860489583333335 -4.644083333333334 -5.8857718750000005 -4.663848958333333 -2.303665625 -0.011044791666666668 -4.407398958333333 1.2979666666666667 -5.416955208333333 3.363222916666667l-0.207646875 0.42756041666666667 -0.39174270833333336 0.041040625000000004c-1.769346875 0.18927083333333336 -3.222168229166667 1.4834041666666669 -3.6139420833333333 3.2191614583333337 -0.3861747916666667 1.710984375 0.34296593750000004 3.4772645833333335 1.816324375 4.418970833333334l0.06451979166666666 0.04041770833333333v1.58570625h-0.009319791666666665l-0.13991666666666666 -0.06344166666666666C1.2727936458333333 17.557888541666667 -0.023423008333333332 15.221663541666668 0.28455552083333335 12.805681250000001 0.5925351041666668 10.389698958333334 2.4334000000000002 8.4533625 4.830742708333333 8.023741666666668c1.2952114583333334 -2.4110947916666667 3.8167302083333334 -3.9090656249999998 6.553634375 -3.8936125Z" stroke-width="1"></path></svg>